<svg width="20" height="20" viewBox="0 0 20 20" fill="none" xmlns="http://www.w3.org/2000/svg">
<path d="M7.5 13.7474C6.91667 13.7474 6.42361 13.546 6.02083 13.1432C5.61806 12.7405 5.41667 12.2474 5.41667 11.6641C5.41667 11.0807 5.61806 10.5877 6.02083 10.1849C6.42361 9.78212 6.91667 9.58073 7.5 9.58073C8.08333 9.58073 8.57639 9.78212 8.97917 10.1849C9.38194 10.5877 9.58333 11.0807 9.58333 11.6641C9.58333 12.2474 9.38194 12.7405 8.97917 13.1432C8.57639 13.546 8.08333 13.7474 7.5 13.7474ZM4.16667 18.3307C3.70833 18.3307 3.31597 18.1675 2.98958 17.8411C2.66319 17.5148 2.5 17.1224 2.5 16.6641V4.9974C2.5 4.53906 2.66319 4.1467 2.98958 3.82031C3.31597 3.49392 3.70833 3.33073 4.16667 3.33073H5V1.66406H6.66667V3.33073H13.3333V1.66406H15V3.33073H15.8333C16.2917 3.33073 16.684 3.49392 17.0104 3.82031C17.3368 4.1467 17.5 4.53906 17.5 4.9974V16.6641C17.5 17.1224 17.3368 17.5148 17.0104 17.8411C16.684 18.1675 16.2917 18.3307 15.8333 18.3307H4.16667ZM4.16667 16.6641H15.8333V8.33073H4.16667V16.6641Z" fill="#667185"/>
</svg>
