<svg width="24" height="24" viewBox="0 0 24 24" fill="none" xmlns="http://www.w3.org/2000/svg">
<path d="M2.66667 24C1.93333 24 1.30556 23.765 0.783333 23.295C0.261111 22.825 0 22.26 0 21.6V4.8C0 4.14 0.261111 3.575 0.783333 3.105C1.30556 2.635 1.93333 2.4 2.66667 2.4H8.26667C8.55556 1.68 9.03889 1.1 9.71667 0.66C10.3944 0.22 11.1556 0 12 0C12.8444 0 13.6056 0.22 14.2833 0.66C14.9611 1.1 15.4444 1.68 15.7333 2.4H21.3333C22.0667 2.4 22.6944 2.635 23.2167 3.105C23.7389 3.575 24 4.14 24 4.8V21.6C24 22.26 23.7389 22.825 23.2167 23.295C22.6944 23.765 22.0667 24 21.3333 24H2.66667ZM2.66667 21.6H21.3333V4.8H2.66667V21.6ZM5.33333 19.2H14.6667V16.8H5.33333V19.2ZM5.33333 14.4H18.6667V12H5.33333V14.4ZM5.33333 9.6H18.6667V7.2H5.33333V9.6ZM12 3.9C12.2889 3.9 12.5278 3.815 12.7167 3.645C12.9056 3.475 13 3.26 13 3C13 2.74 12.9056 2.525 12.7167 2.355C12.5278 2.185 12.2889 2.1 12 2.1C11.7111 2.1 11.4722 2.185 11.2833 2.355C11.0944 2.525 11 2.74 11 3C11 3.26 11.0944 3.475 11.2833 3.645C11.4722 3.815 11.7111 3.9 12 3.9Z" fill="#52C41A"/>
</svg>
